<svg xmlns="http://www.w3.org/2000/svg" viewBox="0 0 64 64" width="64" height="64">
  <!-- Lobster claw silhouette -->
  <path d="M32 4C28 4 24 8 22 12C20 16 18 18 14 20C10 22 8 26 8 30C8 34 10 38 14 40C18 42 20 44 22 48C24 52 26 56 28 58C30 60 34 60 36 58C38 56 40 52 42 48C44 44 46 42 50 40C54 38 56 34 56 30C56 26 54 22 50 20C46 18 44 16 42 12C40 8 36 4 32 4Z" fill="#cc2c18"/>
  <!-- Inner claw detail -->
  <path d="M32 12C30 12 28 14 26 18C24 22 22 24 20 26C18 28 16 30 16 32C16 34 18 36 20 38C22 40 24 42 26 46C28 50 30 52 32 52C34 52 36 50 38 46C40 42 42 40 44 38C46 36 48 34 48 32C48 30 46 28 44 26C42 24 40 22 38 18C36 14 34 12 32 12Z" fill="#0a0a0f" opacity="0.3"/>
  <!-- Eye -->
  <circle cx="28" cy="28" r="3" fill="#f5f5f0"/>
  <circle cx="28" cy="28" r="1.5" fill="#0a0a0f"/>
</svg>
